<svg width="24" height="25" viewBox="0 0 24 25" fill="none" xmlns="http://www.w3.org/2000/svg">
<path d="M21.9998 11.8132H4.41379L9.70679 6.52021C9.8023 6.42796 9.87848 6.31762 9.93089 6.19561C9.9833 6.07361 10.0109 5.94239 10.012 5.80961C10.0132 5.67683 9.98789 5.54515 9.93761 5.42225C9.88733 5.29936 9.81307 5.1877 9.71918 5.09381C9.62529 4.99992 9.51364 4.92567 9.39074 4.87538C9.26784 4.8251 9.13616 4.7998 9.00339 4.80096C8.87061 4.80211 8.73939 4.8297 8.61738 4.88211C8.49538 4.93451 8.38503 5.0107 8.29279 5.10621L1.29279 12.1062C1.10532 12.2937 1 12.548 1 12.8132C1 13.0784 1.10532 13.3327 1.29279 13.5202L8.29279 20.5202C8.48139 20.7024 8.73399 20.8032 8.99619 20.8009C9.25838 20.7986 9.5092 20.6934 9.6946 20.508C9.88001 20.3226 9.98518 20.0718 9.98746 19.8096C9.98974 19.5474 9.88894 19.2948 9.70679 19.1062L4.41379 13.8132H21.9998C22.265 13.8132 22.5194 13.7078 22.7069 13.5203C22.8944 13.3328 22.9998 13.0784 22.9998 12.8132C22.9998 12.548 22.8944 12.2936 22.7069 12.1061C22.5194 11.9186 22.265 11.8132 21.9998 11.8132Z" fill="#184F68"/>
</svg>