<svg width="38" height="36" viewBox="0 0 38 36" fill="none" xmlns="http://www.w3.org/2000/svg">
<rect x="0.606641" y="0.593946" width="36.7996" height="34.7996" rx="2.84238" fill="#F2F4FF"/>
<rect x="0.606641" y="0.593946" width="36.7996" height="34.7996" rx="2.84238" stroke="#1B2459" stroke-width="0.812108"/>
<path d="M26.8898 24.7281C26.9653 24.8036 27.0251 24.8932 27.066 24.9917C27.1068 25.0903 27.1278 25.196 27.1278 25.3027C27.1278 25.4094 27.1068 25.5151 27.066 25.6137C27.0251 25.7122 26.9653 25.8018 26.8898 25.8773C26.8144 25.9527 26.7248 26.0126 26.6262 26.0534C26.5276 26.0942 26.422 26.1153 26.3153 26.1153C26.2086 26.1153 26.1029 26.0942 26.0043 26.0534C25.9057 26.0126 25.8162 25.9527 25.7407 25.8773L19.0063 19.1418L12.2719 25.8773C12.1195 26.0297 11.9128 26.1153 11.6973 26.1153C11.4818 26.1153 11.2751 26.0297 11.1228 25.8773C10.9704 25.7249 10.8848 25.5182 10.8848 25.3027C10.8848 25.0872 10.9704 24.8805 11.1228 24.7281L17.8582 17.9937L11.1228 11.2593C10.9704 11.1069 10.8848 10.9003 10.8848 10.6848C10.8848 10.4692 10.9704 10.2626 11.1228 10.1102C11.2751 9.9578 11.4818 9.87219 11.6973 9.87219C11.9128 9.87219 12.1195 9.9578 12.2719 10.1102L19.0063 16.8456L25.7407 10.1102C25.8931 9.9578 26.0998 9.87219 26.3153 9.87219C26.5308 9.87219 26.7375 9.9578 26.8898 10.1102C27.0422 10.2626 27.1278 10.4692 27.1278 10.6848C27.1278 10.9003 27.0422 11.1069 26.8898 11.2593L20.1544 17.9937L26.8898 24.7281Z" fill="#1B2459"/>
</svg>
