<svg width="29" height="30" viewBox="0 0 29 30" fill="none" xmlns="http://www.w3.org/2000/svg">
<rect y="0.545441" width="28.9091" height="28.9091" rx="3.95455" fill="#E7E7E9"/>
<path d="M16.7515 20.0859C17.1138 20.0859 17.4077 19.7921 17.4077 19.4297V12.8672C17.4077 12.5048 17.1138 12.2109 16.7515 12.2109C16.3891 12.2109 16.0952 12.5048 16.0952 12.8672V19.4297C16.0952 19.7921 16.3891 20.0859 16.7515 20.0859Z" fill="#2A2A2B"/>
<path d="M12.1577 20.0859C12.5201 20.0859 12.814 19.7921 12.814 19.4297V12.8672C12.814 12.5048 12.5201 12.2109 12.1577 12.2109C11.7953 12.2109 11.5015 12.5048 11.5015 12.8672V19.4297C11.5015 19.7921 11.7953 20.0859 12.1577 20.0859Z" fill="#2A2A2B"/>
<path d="M17.0796 7.28906C17.442 7.28906 17.7358 6.99519 17.7358 6.63281C17.7358 6.27043 17.442 5.97656 17.0796 5.97656H11.8296C11.4672 5.97656 11.1733 6.27043 11.1733 6.63281C11.1733 6.99519 11.4672 7.28906 11.8296 7.28906H17.0796Z" fill="#2A2A2B"/>
<path d="M7.23584 7.94531C6.87346 7.94531 6.57959 8.23918 6.57959 8.60156C6.57959 8.96394 6.87346 9.25781 7.23584 9.25781H7.89209V21.3328C7.89209 22.8159 9.09959 24.0234 10.5827 24.0234H18.3265C19.8095 24.0234 21.0171 22.8159 21.0171 21.3328V9.25781H21.6733C22.0357 9.25781 22.3296 8.96394 22.3296 8.60156C22.3296 8.23918 22.0357 7.94531 21.6733 7.94531H20.3608H8.54834H7.23584ZM19.7046 9.25781V21.3328C19.7046 22.0941 19.0877 22.7109 18.3265 22.7109H10.5827C9.82147 22.7109 9.20459 22.0941 9.20459 21.3328V9.25781H19.7046Z" fill="#2A2A2B"/>
</svg>
