<svg width="29" height="30" viewBox="0 0 29 30" fill="none" xmlns="http://www.w3.org/2000/svg">
<rect y="0.5" width="29" height="29" rx="4" fill="#E7E7E9"/>
<path d="M7.64372 18.8053C7.47572 18.8053 7.30804 18.7413 7.17975 18.613C6.92348 18.3567 6.92348 17.9413 7.17975 17.6851L17.435 7.42984C17.6909 7.17357 18.1066 7.17357 18.3629 7.42984C18.6192 7.68611 18.6192 8.10151 18.3629 8.35778L8.10769 18.613C7.97972 18.741 7.81172 18.8053 7.64372 18.8053Z" fill="#2A2A2B"/>
<path d="M6.63054 23.5313C6.58493 23.5313 6.53866 23.5263 6.4924 23.5165C6.13802 23.4404 5.91227 23.0916 5.9884 22.7372L7.0023 18.0112C7.07843 17.6568 7.42887 17.4317 7.7816 17.5072C8.13598 17.5833 8.36173 17.9321 8.2856 18.2865L7.27169 23.0125C7.20574 23.3206 6.9334 23.5313 6.63054 23.5313Z" fill="#2A2A2B"/>
<path d="M11.3559 22.5174C11.1879 22.5174 11.0202 22.4534 10.8919 22.3251C10.6356 22.0688 10.6356 21.6534 10.8919 21.3971L21.1471 11.1422C21.4031 10.886 21.8188 10.886 22.0751 11.1422C22.3313 11.3985 22.3313 11.8139 22.0751 12.0702L11.8202 22.3251C11.6919 22.4534 11.5239 22.5174 11.3559 22.5174Z" fill="#2A2A2B"/>
<path d="M6.62921 23.5313C6.32635 23.5313 6.05434 23.3206 5.98806 23.0125C5.91226 22.6581 6.13768 22.3093 6.49206 22.2332L11.218 21.2193C11.5727 21.1442 11.9215 21.3692 11.9973 21.7233C12.0731 22.0777 11.8477 22.4265 11.4933 22.5026L6.76735 23.5165C6.72109 23.5267 6.67482 23.5313 6.62921 23.5313Z" fill="#2A2A2B"/>
<path d="M19.755 14.1183C19.587 14.1183 19.419 14.0544 19.291 13.9261L15.5789 10.214C15.3227 9.95771 15.3227 9.54231 15.5789 9.28604C15.8349 9.02978 16.2509 9.02978 16.5069 9.28604L20.2189 12.9981C20.4752 13.2544 20.4752 13.6698 20.2189 13.9261C20.091 14.0544 19.923 14.1183 19.755 14.1183Z" fill="#2A2A2B"/>
<path d="M21.6111 12.2624C21.4431 12.2624 21.2751 12.1985 21.1468 12.0702C20.8905 11.8139 20.8905 11.3985 21.1468 11.1419C21.512 10.7767 21.7131 10.2822 21.7131 9.74999C21.7131 9.21777 21.512 8.72329 21.1468 8.35808C20.7813 7.99255 20.2868 7.79141 19.7546 7.79141C19.2223 7.79141 18.7279 7.99255 18.3627 8.35808C18.1067 8.61435 17.6913 8.61468 17.4344 8.35808C17.1781 8.10182 17.1781 7.68641 17.4344 7.42982C18.0473 6.81655 18.8712 6.47891 19.7546 6.47891C20.6375 6.47891 21.4618 6.81655 22.0747 7.42982C22.688 8.04276 23.0256 8.86668 23.0256 9.74999C23.0256 10.6333 22.688 11.4572 22.0747 12.0702C21.9471 12.1981 21.7791 12.2624 21.6111 12.2624Z" fill="#2A2A2B"/>
</svg>
