<svg width="500" height="500" viewBox="0 0 500 500" fill="none" xmlns="http://www.w3.org/2000/svg">
<path d="M460.075 399.061H62.0069C57.7709 399.061 54.3359 395.627 54.3359 391.39C54.3359 387.154 57.7699 383.719 62.0069 383.719H460.075C464.311 383.719 467.746 387.153 467.746 391.39C467.745 395.627 464.311 399.061 460.075 399.061Z" fill="#FF7129"/>
<path d="M421.778 307.045H171.568C159.358 307.045 149.459 297.147 149.459 284.936V117.939C149.459 105.729 159.357 95.8301 171.568 95.8301H421.778C433.988 95.8301 443.887 105.728 443.887 117.939V284.936C443.887 297.146 433.988 307.045 421.778 307.045Z" fill="#F5F5F5"/>
<path opacity="0.5" d="M443.887 127.932H149.458V117.939C149.458 105.729 159.356 95.8301 171.567 95.8301H421.777C433.987 95.8301 443.886 105.728 443.886 117.939V127.932H443.887Z" fill="#D6D6D6"/>
<path d="M394.622 116.727H220.446C217.769 116.727 215.599 114.557 215.599 111.88C215.599 109.203 217.769 107.033 220.446 107.033H394.623C397.3 107.033 399.47 109.203 399.47 111.88C399.47 114.557 397.299 116.727 394.622 116.727Z" fill="#F5F5F5"/>
<path d="M170.602 111.882C170.602 114.069 168.829 115.842 166.642 115.842C164.455 115.842 162.682 114.069 162.682 111.882C162.682 109.695 164.455 107.922 166.642 107.922C168.829 107.922 170.602 109.695 170.602 111.882Z" fill="#F5F5F5"/>
<path d="M185.386 111.882C185.386 114.069 183.613 115.842 181.426 115.842C179.239 115.842 177.466 114.069 177.466 111.882C177.466 109.695 179.239 107.922 181.426 107.922C183.613 107.922 185.386 109.695 185.386 111.882Z" fill="#F5F5F5"/>
<path d="M199.927 111.882C199.927 114.069 198.154 115.842 195.967 115.842C193.78 115.842 192.007 114.069 192.007 111.882C192.007 109.695 193.78 107.922 195.967 107.922C198.154 107.922 199.927 109.695 199.927 111.882Z" fill="#F5F5F5"/>
<path d="M317.688 174.17L292.794 199.063L267.901 174.17L252.879 189.192L277.773 214.085L252.879 238.978L267.901 254L292.794 229.106L317.688 254L332.71 238.978L307.816 214.085L332.71 189.191L317.688 174.17Z" fill="#D6D6D6"/>
<path d="M396.142 383.72H294.18L302.235 268.375C302.715 261.494 308.683 255.916 315.564 255.916H392.609C399.49 255.916 404.678 261.494 404.198 268.375L396.142 383.72Z" fill="#1282D6"/>
<path d="M381.142 383.72H279.18L287.235 268.375C287.715 261.494 293.683 255.916 300.564 255.916H377.609C384.49 255.916 389.678 261.494 389.198 268.375L381.142 383.72Z" fill="#3897E9"/>
<path d="M339.822 255.917C343.627 259.462 345.125 262.822 345.754 265.384C347.037 270.617 345.941 277.622 345.938 277.686C347.906 280.021 350.413 283.167 353.104 287.04C353.104 287.04 359.121 295.701 363.365 304.689C368.653 315.888 377.225 334.041 373.225 353.354C370.16 368.152 359.696 383.72 359.696 383.72H301.683L308.791 255.902L339.822 255.917Z" fill="#1282D6"/>
<path d="M231.273 183.563C231.558 182.649 236.225 168.303 247.187 163.418C252.433 161.081 258.346 160.857 258.346 160.857C258.957 160.834 261.481 160.758 264.881 161.316C264.881 161.316 272.727 162.266 278.448 166.322C288.515 173.461 294.349 191.335 293.276 206.88C292.894 212.407 291.583 218.084 295.177 222.331C297.116 224.622 300.332 225.383 304.894 226.781C314.372 229.685 329.964 233.354 336.231 246.042C342.499 258.73 343.263 276.615 339.135 281.507C335.008 286.399 236.506 285.94 233.018 282.118C229.53 278.296 223.11 259.8 222.345 245.124C221.665 232.079 230.804 226.676 233.018 210.596C234.56 199.398 232.903 189.855 231.273 183.563Z" fill="#262626"/>
<path d="M287.467 182.145C289.356 185.829 292.065 191.77 294.04 199.458C297.16 211.605 294.696 213.543 297.556 218.221C303.906 228.61 317.692 222.266 330.881 234.119C338.278 240.767 340.84 248.963 341.703 251.852C345.454 264.393 341.955 275.15 340.476 279.034" stroke="#262626" stroke-miterlimit="10" stroke-linecap="round" stroke-linejoin="round"/>
<path d="M234.881 206.449C233.035 210.611 230.059 217.2 226.168 225.252C219.061 239.958 217.078 242.63 217.615 247.874C218.546 256.958 226.294 266.472 226.294 266.472" stroke="#262626" stroke-miterlimit="10" stroke-linecap="round" stroke-linejoin="round"/>
<path d="M249.948 238.344C249.948 238.344 275.227 238.344 275.338 238.344C295.413 238.344 317.404 252.712 330.607 266.749C341.169 277.978 348.898 291.628 354.762 305.885C362.4 324.455 369.879 350.185 360.537 369.403C359.142 372.272 355.98 378.565 349.274 381.961C341.896 385.697 334.188 383.466 331.798 383.466C316.206 383.466 178.015 383.508 178.015 383.508C174.322 347.611 181.437 320.565 186.576 305.81C191.35 292.101 196.934 276.623 211.507 261.925C225.464 247.85 240.852 241.363 249.948 238.344Z" fill="#FEC02D"/>
<path d="M248.792 238.344L231.059 384.129L219.595 384.041L237.353 242.892L248.792 238.344Z" fill="#EAA418"/>
<path d="M262.593 249.074C269.705 249.101 275.492 243.357 275.519 236.245L275.624 208.536L249.871 208.438L249.766 236.148C249.739 243.259 255.482 249.047 262.593 249.074Z" fill="#F7A99C"/>
<path d="M249.795 228.392L266.568 219.775C266.398 221.227 265.445 228.03 259.462 232.728C255.642 235.728 251.628 236.413 249.774 236.607L249.795 228.392Z" fill="#FF7769"/>
<path d="M276.249 199.952C276.33 199.533 277.433 198.901 277.772 198.684C278.345 198.318 278.964 198.026 279.611 197.817C280.868 197.413 282.248 197.319 283.539 197.615C286.107 198.204 288.383 200.361 288.81 203.003C289.058 204.538 288.704 206.125 288.046 207.534C287.057 209.652 285.38 211.432 283.354 212.599C281.675 213.566 279.765 214.113 277.834 214.228C277.447 214.251 273.49 214.159 273.519 214.008C274.43 209.323 275.34 204.638 276.249 199.952Z" fill="#F7A99C"/>
<path d="M279.78 200.22C279.475 202.288 277.658 213.193 267.829 220.898C266.018 222.317 253.98 231.753 242.967 227.148C228.814 221.231 230.358 197.985 230.458 196.726C230.795 192.47 231.789 179.935 242.17 173.247C250.642 167.789 259.823 169.796 261.125 170.102C262.497 170.425 271.237 172.63 276.585 181.199C281.437 188.975 280.278 196.837 279.78 200.22Z" fill="#F7A99C"/>
<path d="M238.489 196.741C238.261 198.556 236.862 199.874 235.363 199.686C233.864 199.498 232.835 197.874 233.063 196.059C233.291 194.244 234.69 192.925 236.189 193.114C237.687 193.303 238.717 194.926 238.489 196.741Z" fill="#262626"/>
<path d="M254.843 198.795C254.615 200.61 253.216 201.928 251.718 201.74C250.22 201.552 249.19 199.928 249.418 198.113C249.646 196.298 251.045 194.98 252.543 195.168C254.041 195.356 255.071 196.98 254.843 198.795Z" fill="#262626"/>
<path d="M243.427 199.457L240.92 202.843C240.459 203.465 240.632 204.349 241.294 204.752L243.596 206.153" stroke="#262626" stroke-width="1.3478" stroke-miterlimit="10" stroke-linecap="round" stroke-linejoin="round"/>
<path d="M260.328 207.343C260.072 209.379 258.214 210.823 256.178 210.567C254.142 210.311 252.698 208.453 252.954 206.417C253.21 204.381 255.068 202.937 257.104 203.193C259.141 203.449 260.584 205.307 260.328 207.343Z" fill="#FF7769"/>
<path d="M277.977 209.263C277.965 208.855 277.93 206.09 280.149 204.095C281.887 202.532 283.909 202.43 284.461 202.42" stroke="#262626" stroke-width="1.3478" stroke-miterlimit="10" stroke-linecap="round" stroke-linejoin="round"/>
<path d="M279.934 204.64C280.057 204.621 281.545 204.414 282.583 205.539C283.437 206.463 283.359 207.607 283.343 207.797" stroke="#262626" stroke-width="1.3478" stroke-miterlimit="10" stroke-linecap="round" stroke-linejoin="round"/>
<path d="M232.384 201.465C231.68 201.377 231.002 201.503 230.399 201.775C230.471 203.77 230.663 206.19 231.101 208.757C231.22 208.784 231.334 208.823 231.458 208.839C233.494 209.095 235.353 207.651 235.608 205.615C235.864 203.579 234.421 201.721 232.384 201.465Z" fill="#FF7769"/>
<path d="M240.02 212.942C240.449 212.421 241.783 210.939 244.09 210.362C246.704 209.709 248.802 210.659 249.364 210.935" stroke="#262626" stroke-width="1.3478" stroke-miterlimit="10" stroke-linecap="round" stroke-linejoin="round"/>
<path d="M229.301 190.322H245.505C245.505 190.322 246.116 185.048 247.722 182.449C249.328 179.85 251.773 178.245 251.773 178.245C251.405 179.176 250.986 180.409 250.665 181.895C250.436 182.955 250.131 184.361 250.149 186.194C250.149 186.194 250.156 186.888 250.55 190.321H264.614C264.291 189.465 263.598 187.285 264.194 184.589C264.714 182.236 265.949 180.686 266.568 180.003C266.092 184.223 266.626 187.585 267.136 189.71C268.025 193.415 269.507 196.14 270.614 198.175C271.677 200.13 272.72 201.691 273.521 202.805C273.521 202.805 275.43 200.394 276.977 199.457C278.525 198.52 280.106 197.676 280.106 197.676C280.461 195.833 280.78 193.033 280.283 189.711C279.261 182.873 275.468 178.405 273.882 176.737C268.503 171.079 262.067 169.808 259.723 169.38C254.722 168.467 250.712 169.229 249.328 169.533C248.246 169.771 245.735 170.396 242.812 171.922C240.784 172.98 235.039 176.062 231.634 182.814C230.827 184.411 229.773 186.954 229.301 190.322Z" fill="#262626"/>
<path d="M246.518 239.551C246.518 239.551 230.83 303.825 228.996 325.379C227.162 346.933 226.474 384.129 226.474 384.129L178.015 383.511C177.028 376.551 176.145 367.084 176.486 355.876C177.285 329.678 184.282 310.194 187.034 303.137C193.512 286.522 201.334 266.458 221.658 251.774C231.056 244.985 240.198 241.461 246.518 239.551Z" fill="#FDB6D6"/>
<path d="M214.55 280.131L194.37 383.72H206.448L214.55 280.131Z" fill="#FF94CA"/>
<path d="M218.066 261.633C216.958 267.864 215.226 278.279 213.677 291.293C211.78 307.232 212.065 311.056 208.945 351.793C208.01 364.006 206.448 383.719 206.448 383.719" stroke="#262626" stroke-miterlimit="10" stroke-linecap="round" stroke-linejoin="round"/>
<path d="M262.072 360.577C263.904 362.476 264.96 364.301 265.569 365.564C267.482 369.535 267.548 373.309 267.595 375.978C267.623 377.568 267.532 378.888 267.442 379.8C267.442 379.8 243.748 372.157 240.232 372.462C237.134 372.731 221.696 376.679 218.067 377.615C217.563 377.745 217.038 377.731 216.54 377.578L211.34 375.978L206.437 376.187C204.677 376.262 203.471 374.462 204.188 372.853C204.366 372.453 204.605 372.018 204.92 371.545C207.06 368.335 209.2 366.042 209.2 366.042L201.343 367.459C200.581 367.462 199.333 367.356 198.905 366.592C198.267 365.452 199.835 363.529 200.907 362.24C203.394 359.251 206.112 357.643 206.983 357.138C210.053 355.358 212.916 353.698 217.607 352.285C221.304 351.171 231.484 347.938 244.015 351.119C252.227 353.203 258.257 357.322 262.072 360.577Z" fill="#F7A99C"/>
<path d="M260.819 359.545C260.923 360.347 261.473 365.229 257.964 369.405C254.053 374.059 248.371 373.944 247.681 373.918L267.442 379.8C267.442 379.8 267.588 372.732 267.239 370.994C266.89 369.256 265.673 365.242 264.419 363.525C263.165 361.808 260.819 359.545 260.819 359.545Z" fill="#FF7769"/>
<path d="M211.34 375.979C213.614 373.491 217.536 369.811 223.353 366.907C228.835 364.17 233.831 363.205 237.098 362.832" stroke="#262626" stroke-miterlimit="10" stroke-linecap="round" stroke-linejoin="round"/>
<path d="M206.437 376.187C210.022 370.074 213.99 366.894 216.919 365.125C216.919 365.125 219.083 363.818 230.448 359.545" stroke="#262626" stroke-miterlimit="10" stroke-linecap="round" stroke-linejoin="round"/>
<path d="M208.843 366.106C211.726 361.851 214.736 359.875 216.92 358.857C220.804 357.045 226.703 356.105 226.703 356.105" stroke="#262626" stroke-miterlimit="10" stroke-linecap="round" stroke-linejoin="round"/>
<path d="M277.975 238.344C277.975 238.344 273.021 275.161 272.333 297.174C271.645 319.187 270.941 356.792 270.941 356.792L262.072 360.576C262.072 360.576 266.305 373.073 266.567 376.971C266.83 380.869 266.567 384.129 266.567 384.129C279.538 383.876 290.079 384.197 297.326 384.538C303.491 384.829 312.671 384.885 331.033 384.997C337.562 385.037 343.079 385.007 349.273 381.963C350.006 381.602 356.227 378.463 360.842 372.156C363.829 368.074 368.517 359.42 365.886 337.99C364.779 328.973 360.937 300.764 339.058 274.015C326.558 258.733 314.222 251.324 310.791 249.351C300.384 243.369 291.229 240.932 289.328 240.44C284.799 239.271 280.882 238.673 277.975 238.344Z" fill="#FDB6D6"/>
<path d="M307.75 308.717C307.986 314.478 307.592 324.817 302.295 336.004C299.461 341.989 296.02 346.535 293.123 349.755C299.442 348.127 305.76 346.498 312.079 344.87L307.75 308.717Z" fill="#FF94CA"/>
<path d="M333.633 340.055C333.633 340.055 278.287 353.66 270.941 356.794C263.595 359.928 262.072 360.578 262.072 360.578" stroke="#262626" stroke-miterlimit="10" stroke-linecap="round" stroke-linejoin="round"/>
<path d="M337.913 282.73C337.913 282.73 365.123 333.94 357.021 354.883C355.782 358.085 353.045 365.012 346.201 370.044C339.782 374.762 332.865 375.509 320.945 375.826C310.521 376.103 296.657 376.042 280.13 374.756" stroke="white" stroke-miterlimit="10" stroke-linecap="round" stroke-linejoin="round"/>
<path d="M329.955 264.094C318.729 268.539 313.499 274.531 310.856 278.603C310.856 278.603 302.746 291.095 312.737 345.284" stroke="#262626" stroke-miterlimit="10" stroke-linecap="round" stroke-linejoin="round"/>
<path d="M264.598 385.003H190.321V376.105H268.436V381.165C268.436 383.285 266.718 385.003 264.598 385.003Z" fill="#374ACC"/>
<path d="M198.45 385.004H95.9539C93.6109 385.004 91.4799 383.105 91.1929 380.762L81.8859 304.635C81.5999 302.292 83.2669 300.393 85.6089 300.393H188.106C190.449 300.393 192.58 302.292 192.867 304.635L202.173 380.762C202.46 383.105 200.793 385.004 198.45 385.004Z" fill="#374ACC"/>
<path d="M192.45 385.004H89.9539C87.6109 385.004 85.4799 383.105 85.1929 380.762L75.8859 304.635C75.5999 302.292 77.2669 300.393 79.6089 300.393H182.106C184.449 300.393 186.58 302.292 186.867 304.635L196.173 380.762C196.46 383.105 194.793 385.004 192.45 385.004Z" fill="#4450E4"/>
<path d="M75.886 304.634C76.628 304.431 79.344 328.165 94.855 349.531C97.538 353.226 102.378 359.793 110.6 366.193C110.6 366.193 118.961 372.701 150.116 385.002C148.437 385.002 146.757 385.002 145.078 385.002C140.947 385.002 136.816 385.002 132.684 385.002C127.455 385.002 122.226 385.002 116.997 385.002C112.025 385.002 107.053 385.002 102.08 385.002C99.412 385.002 96.745 385.005 94.077 385.004C91.952 385.003 89.308 385.478 87.411 384.291C85.841 383.309 85.155 381.367 84.93 379.529C84.771 378.228 84.789 376.913 84.643 375.611C84.498 374.323 84.249 373.045 84.092 371.755C83.748 368.939 83.403 366.122 83.059 363.306C82.496 358.699 81.933 354.093 81.369 349.486C80.762 344.518 80.154 339.55 79.547 334.583C78.983 329.97 78.419 325.357 77.855 320.745C77.422 317.204 77.053 313.654 76.556 310.12C75.987 306.066 75.705 304.683 75.886 304.634Z" fill="#5D6FF4"/>
<path d="M79.6099 300.393H182.107C184.45 300.393 186.581 302.292 186.868 304.635L196.174 380.762" stroke="#262626" stroke-miterlimit="10" stroke-linecap="round" stroke-linejoin="round"/>
<path d="M138.996 340.578C138.996 343.839 136.353 346.483 133.092 346.483C129.831 346.483 127.188 343.839 127.188 340.578C127.188 337.317 129.831 334.674 133.092 334.674C136.352 334.673 138.996 337.317 138.996 340.578Z" fill="#FEC02D"/>
<path d="M357.786 262.857H369.167C374.163 262.857 378.104 267.105 377.73 272.087L374.256 318.347" stroke="white" stroke-miterlimit="10" stroke-linecap="round" stroke-linejoin="round"/>
<path d="M163.039 316.43H44.6758C38.8998 316.43 34.2168 311.748 34.2168 305.971V226.973C34.2168 221.197 38.8998 216.514 44.6758 216.514H163.039C168.815 216.514 173.498 221.197 173.498 226.973V305.971C173.498 311.748 168.815 316.43 163.039 316.43Z" fill="#F5F5F5"/>
<path opacity="0.5" d="M173.498 231.7H34.2168V226.973C34.2168 221.197 38.8998 216.514 44.6758 216.514H163.039C168.815 216.514 173.498 221.197 173.498 226.973V231.7Z" fill="#D6D6D6"/>
<path d="M150.193 226.4H67.7979C66.5319 226.4 65.5049 225.373 65.5049 224.107C65.5049 222.841 66.5319 221.814 67.7979 221.814H150.193C151.459 221.814 152.486 222.841 152.486 224.107C152.486 225.374 151.46 226.4 150.193 226.4Z" fill="#F5F5F5"/>
<path d="M44.2197 224.107C44.2197 225.142 43.3807 225.981 42.3467 225.981C41.3117 225.981 40.4727 225.142 40.4727 224.107C40.4727 223.072 41.3117 222.234 42.3467 222.234C43.3807 222.234 44.2197 223.073 44.2197 224.107Z" fill="#F5F5F5"/>
<path d="M51.2128 224.107C51.2128 225.142 50.3738 225.981 49.3388 225.981C48.3038 225.981 47.4658 225.142 47.4658 224.107C47.4658 223.072 48.3048 222.234 49.3388 222.234C50.3738 222.234 51.2128 223.073 51.2128 224.107Z" fill="#F5F5F5"/>
<path d="M58.0917 224.107C58.0917 225.142 57.2527 225.981 56.2187 225.981C55.1837 225.981 54.3447 225.142 54.3447 224.107C54.3447 223.072 55.1837 222.234 56.2187 222.234C57.2527 222.234 58.0917 223.073 58.0917 224.107Z" fill="#F5F5F5"/>
<path d="M113.799 253.572L102.023 265.348L90.2466 253.572L83.1406 260.678L94.9166 272.454L83.1406 284.229L90.2466 291.336L102.023 279.56L113.799 291.336L120.905 284.229L109.129 272.454L120.905 260.678L113.799 253.572Z" fill="#D6D6D6"/>
<path d="M163.039 316.43H44.6758C38.8998 316.43 34.2168 311.748 34.2168 305.971V226.973C34.2168 221.197 38.8998 216.514 44.6758 216.514H163.039C168.815 216.514 173.498 221.197 173.498 226.973V305.971C173.498 311.748 168.815 316.43 163.039 316.43Z" stroke="#262626" stroke-miterlimit="10" stroke-linecap="round" stroke-linejoin="round"/>
<path d="M211.852 162.26L227.322 168.678" stroke="#FF7129" stroke-miterlimit="10" stroke-linecap="round" stroke-linejoin="round"/>
<path d="M211.183 145.326L230.763 163.921" stroke="#FF7129" stroke-miterlimit="10" stroke-linecap="round" stroke-linejoin="round"/>
<path d="M228.195 145.051L235.402 160.17" stroke="#FF7129" stroke-miterlimit="10" stroke-linecap="round" stroke-linejoin="round"/>
<path d="M415.545 228.12C416.948 224.442 418.358 221.587 419.776 219.557C421.193 217.527 423.069 215.885 425.403 214.634C426.767 213.868 428.194 213.307 429.689 212.948C431.181 212.59 432.6 212.149 433.943 211.625C435.284 211.102 436.512 210.409 437.627 209.549C438.741 208.688 439.643 207.355 440.333 205.546C441.498 202.492 441.471 200.035 440.251 198.177C439.031 196.319 437.267 194.95 434.962 194.07C431.656 192.809 429.03 192.862 427.083 194.225C425.133 195.589 423.409 197.77 421.909 200.768L409.846 196.166C411.011 193.112 412.567 190.527 414.517 188.413C416.465 186.3 418.692 184.721 421.198 183.677C423.702 182.633 426.427 182.137 429.372 182.189C432.315 182.24 435.346 182.861 438.464 184.05C445.197 186.618 449.988 190.018 452.839 194.247C455.688 198.477 455.937 203.677 453.583 209.85C452.821 211.846 451.953 213.513 450.978 214.855C450.001 216.196 448.876 217.32 447.603 218.227C446.328 219.133 444.896 219.891 443.308 220.499C441.718 221.108 439.962 221.687 438.038 222.238C436.261 222.775 434.78 223.335 433.594 223.917C432.407 224.5 431.404 225.208 430.589 226.038C429.772 226.869 429.092 227.807 428.552 228.85C428.01 229.894 427.479 231.102 426.956 232.473L415.545 228.12ZM408.287 246.027L412.96 233.776L425.585 238.592L420.912 250.843L408.287 246.027Z" fill="#FDB6D6"/>
<path d="M90.018 164.787C89.124 162.5 88.578 160.591 88.381 159.059C88.184 157.527 88.362 155.983 88.915 154.426C89.224 153.501 89.647 152.643 90.187 151.85C90.726 151.059 91.196 150.26 91.597 149.455C91.997 148.651 92.274 147.816 92.428 146.952C92.581 146.088 92.439 145.094 91.999 143.969C91.256 142.07 90.214 140.947 88.871 140.6C87.528 140.253 86.14 140.361 84.707 140.922C82.652 141.726 81.461 142.851 81.133 144.297C80.805 145.744 80.923 147.474 81.487 149.488L73.987 152.421C73.244 150.522 72.879 148.676 72.893 146.883C72.907 145.091 73.273 143.428 73.992 141.895C74.711 140.363 75.761 138.991 77.142 137.78C78.522 136.57 80.182 135.585 82.121 134.827C86.307 133.19 89.945 132.751 93.035 133.508C96.124 134.267 98.42 136.564 99.92 140.401C100.405 141.642 100.703 142.776 100.816 143.805C100.927 144.834 100.879 145.825 100.671 146.778C100.462 147.731 100.119 148.681 99.64 149.628C99.161 150.576 98.593 151.579 97.936 152.641C97.341 153.634 96.892 154.514 96.588 155.28C96.285 156.047 96.118 156.794 96.09 157.519C96.061 158.246 96.141 158.964 96.328 159.671C96.515 160.38 96.777 161.161 97.11 162.013L90.018 164.787ZM94.174 176.1L91.195 168.484L99.044 165.414L102.023 173.03L94.174 176.1Z" fill="#FDB6D6"/>
<path d="M440.614 383.719H408.711L406.582 349.754H442.742L440.614 383.719Z" fill="#FEC02D"/>
<path d="M438.414 349.754H410.91V320.797C410.91 313.202 417.067 307.045 424.662 307.045C432.257 307.045 438.414 313.202 438.414 320.797V349.754Z" fill="#94E261"/>
<mask id="mask0_3012_145" style="mask-type:luminance" maskUnits="userSpaceOnUse" x="410" y="307" width="29" height="43">
<path d="M438.414 349.754H410.91V320.797C410.91 313.202 417.067 307.045 424.662 307.045C432.257 307.045 438.414 313.202 438.414 320.797V349.754V349.754Z" fill="white"/>
</mask>
<g mask="url(#mask0_3012_145)">
<path d="M415.934 311.236C415.934 315.086 413.623 315.086 413.623 318.937C413.623 322.789 415.934 322.789 415.934 326.64C415.934 330.49 413.623 330.49 413.623 334.341C413.623 338.194 415.934 338.194 415.934 342.047C415.934 345.9 413.623 345.9 413.623 349.753" stroke="#262626" stroke-width="0.5" stroke-miterlimit="10" stroke-linecap="round" stroke-linejoin="round"/>
<path d="M421.983 307.619C421.983 311.831 419.455 311.831 419.455 316.043C419.455 320.256 421.983 320.256 421.983 324.47C421.983 328.682 419.455 328.682 419.455 332.894C419.455 337.109 421.983 337.109 421.983 341.324C421.983 345.539 419.455 345.539 419.455 349.754" stroke="#262626" stroke-width="0.5" stroke-miterlimit="10" stroke-linecap="round" stroke-linejoin="round"/>
<path d="M430.881 307.969C430.881 312.146 428.374 312.146 428.374 316.323C428.374 320.501 430.881 320.501 430.881 324.68C430.881 328.857 428.374 328.857 428.374 333.034C428.374 337.214 430.881 337.214 430.881 341.394C430.881 345.574 428.374 345.574 428.374 349.754" stroke="#262626" stroke-width="0.5" stroke-miterlimit="10" stroke-linecap="round" stroke-linejoin="round"/>
<path d="M437.097 313.006C437.097 316.679 434.892 316.679 434.892 320.353C434.892 324.028 437.097 324.028 437.097 327.702C437.097 331.375 434.892 331.375 434.892 335.049C434.892 338.725 437.097 338.725 437.097 342.401C437.097 346.077 434.892 346.077 434.892 349.753" stroke="#262626" stroke-width="0.5" stroke-miterlimit="10" stroke-linecap="round" stroke-linejoin="round"/>
</g>
<path d="M442.742 349.754L440.614 383.719H408.711C412.972 382.564 421.357 379.672 429.223 372.274C438.282 363.753 441.568 354.037 442.742 349.754Z" fill="#EAA418"/>
<path d="M440.913 355.15C439.618 358.369 437.432 362.8 433.748 367.378C430.068 371.952 426.211 375.033 423.345 376.987" stroke="#262626" stroke-width="0.5" stroke-miterlimit="10" stroke-linecap="round" stroke-linejoin="round"/>
</svg>
