<svg width="18" height="18" viewBox="0 0 18 18" fill="none" xmlns="http://www.w3.org/2000/svg">
<circle cx="9" cy="9" r="9" fill="#FD6E69"/>
<path d="M6.22942 5.59743C6.93711 4.88974 7.87802 4.5 8.87881 4.5C9.87959 4.5 10.8205 4.88974 11.5282 5.59743C12.7361 6.80532 12.9452 8.63949 12.1556 10.0643L13.8459 11.7547C14.2418 12.1505 14.2418 12.7947 13.8459 13.1905C13.6542 13.3823 13.3992 13.4879 13.128 13.4879C12.8568 13.4879 12.6019 13.3823 12.4101 13.1905L10.7273 11.5077C10.17 11.8248 9.53738 11.9936 8.87881 11.9936C7.87799 11.9936 6.93708 11.6039 6.22942 10.8962C4.76855 9.43529 4.76855 7.0583 6.22942 5.59743ZM6.89265 10.2329C7.42319 10.7634 8.12853 11.0556 8.87877 11.0556C9.62902 11.0556 10.3344 10.7634 10.8649 10.2329C11.96 9.13778 11.96 7.3558 10.8649 6.26069C10.3344 5.73016 9.62902 5.438 8.87877 5.438C8.12853 5.438 7.42315 5.73016 6.89265 6.26069C5.79754 7.35583 5.79754 9.13778 6.89265 10.2329Z" fill="white"/>
</svg>