<svg width="30" height="30" viewBox="0 0 30 30" fill="none" xmlns="http://www.w3.org/2000/svg">
<rect x="0.5" y="0.660004" width="29" height="29" rx="3.95455" fill="#E7E7E9"/>
<path d="M24.8299 14.8931C24.8011 14.828 24.1032 13.28 22.5519 11.7286C20.4848 9.66157 17.874 8.56912 15.0004 8.56912C12.1267 8.56912 9.51591 9.66157 7.44884 11.7286C5.8975 13.28 5.19639 14.8305 5.17085 14.8931C5.13338 14.9774 5.11401 15.0686 5.11401 15.1609C5.11401 15.2531 5.13338 15.3443 5.17085 15.4286C5.19969 15.4937 5.8975 17.0409 7.44884 18.5922C9.51591 20.6585 12.1267 21.7509 15.0004 21.7509C17.874 21.7509 20.4848 20.6585 22.5519 18.5922C24.1032 17.0409 24.8011 15.4937 24.8299 15.4286C24.8674 15.3443 24.8867 15.2531 24.8867 15.1609C24.8867 15.0686 24.8674 14.9774 24.8299 14.8931ZM15.0004 20.4328C12.4645 20.4328 10.2491 19.5109 8.41523 17.6934C7.66275 16.9451 7.02256 16.0918 6.51457 15.16C7.02242 14.2282 7.66263 13.3749 8.41523 12.6267C10.2491 10.8092 12.4645 9.8873 15.0004 9.8873C17.5362 9.8873 19.7516 10.8092 21.5855 12.6267C22.3395 13.3747 22.981 14.228 23.4903 15.16C22.8963 16.269 20.3085 20.4328 15.0004 20.4328ZM15.0004 11.2055C14.2182 11.2055 13.4537 11.4374 12.8033 11.8719C12.153 12.3065 11.6462 12.9241 11.3468 13.6467C11.0475 14.3693 10.9692 15.1644 11.1218 15.9315C11.2744 16.6986 11.651 17.4033 12.2041 17.9563C12.7571 18.5094 13.4618 18.886 14.2289 19.0386C14.996 19.1912 15.7911 19.1129 16.5137 18.8136C17.2363 18.5142 17.8539 18.0074 18.2885 17.3571C18.723 16.7067 18.9549 15.9422 18.9549 15.16C18.9538 14.1116 18.5368 13.1063 17.7955 12.3649C17.0541 11.6236 16.0488 11.2066 15.0004 11.2055ZM15.0004 17.7964C14.4789 17.7964 13.9692 17.6418 13.5357 17.3521C13.1021 17.0624 12.7642 16.6507 12.5647 16.1689C12.3651 15.6872 12.3129 15.1571 12.4147 14.6457C12.5164 14.1343 12.7675 13.6645 13.1362 13.2958C13.5049 12.9271 13.9746 12.676 14.486 12.5743C14.9974 12.4726 15.5275 12.5248 16.0093 12.7243C16.491 12.9239 16.9027 13.2618 17.1924 13.6953C17.4821 14.1289 17.6367 14.6386 17.6367 15.16C17.6367 15.8592 17.359 16.5298 16.8646 17.0242C16.3701 17.5186 15.6996 17.7964 15.0004 17.7964Z" fill="#2A2A2B"/>
</svg>
